<svg width="120" height="24" viewBox="0 0 120 24" fill="none" xmlns="http://www.w3.org/2000/svg">
<path d="M8 18L12 14.95L16 18L14.5 13.05L18.5 10.2H13.6L12 5L10.4 10.2H5.5L9.5 13.05L8 18ZM12 22C10.6167 22 9.31667 21.7373 8.1 21.212C6.88334 20.6867 5.825 19.9743 4.925 19.075C4.025 18.1757 3.31267 17.1173 2.788 15.9C2.26333 14.6827 2.00067 13.3827 2 12C1.99933 10.6173 2.262 9.31733 2.788 8.1C3.314 6.88267 4.02633 5.82433 4.925 4.925C5.82367 4.02567 6.882 3.31333 8.1 2.788C9.318 2.26267 10.618 2 12 2C13.382 2 14.682 2.26267 15.9 2.788C17.118 3.31333 18.1763 4.02567 19.075 4.925C19.9737 5.82433 20.6863 6.88267 21.213 8.1C21.7397 9.31733 22.002 10.6173 22 12C21.998 13.3827 21.7353 14.6827 21.212 15.9C20.6887 17.1173 19.9763 18.1757 19.075 19.075C18.1737 19.9743 17.1153 20.687 15.9 21.213C14.6847 21.739 13.3847 22.0013 12 22Z" fill="black"/>
<path d="M32 18L36 14.95L40 18L38.5 13.05L42.5 10.2H37.6L36 5L34.4 10.2H29.5L33.5 13.05L32 18ZM36 22C34.6167 22 33.3167 21.7373 32.1 21.212C30.8833 20.6867 29.825 19.9743 28.925 19.075C28.025 18.1757 27.3127 17.1173 26.788 15.9C26.2633 14.6827 26.0007 13.3827 26 12C25.9993 10.6173 26.262 9.31733 26.788 8.1C27.314 6.88267 28.0263 5.82433 28.925 4.925C29.8237 4.02567 30.882 3.31333 32.1 2.788C33.318 2.26267 34.618 2 36 2C37.382 2 38.682 2.26267 39.9 2.788C41.118 3.31333 42.1763 4.02567 43.075 4.925C43.9737 5.82433 44.6863 6.88267 45.213 8.1C45.7397 9.31733 46.002 10.6173 46 12C45.998 13.3827 45.7353 14.6827 45.212 15.9C44.6887 17.1173 43.9763 18.1757 43.075 19.075C42.1737 19.9743 41.1153 20.687 39.9 21.213C38.6847 21.739 37.3847 22.0013 36 22Z" fill="black"/>
<path d="M56 18L60 14.95L64 18L62.5 13.05L66.5 10.2H61.6L60 5L58.4 10.2H53.5L57.5 13.05L56 18ZM60 22C58.6167 22 57.3167 21.7373 56.1 21.212C54.8833 20.6867 53.825 19.9743 52.925 19.075C52.025 18.1757 51.3127 17.1173 50.788 15.9C50.2633 14.6827 50.0007 13.3827 50 12C49.9993 10.6173 50.262 9.31733 50.788 8.1C51.314 6.88267 52.0263 5.82433 52.925 4.925C53.8237 4.02567 54.882 3.31333 56.1 2.788C57.318 2.26267 58.618 2 60 2C61.382 2 62.682 2.26267 63.9 2.788C65.118 3.31333 66.1763 4.02567 67.075 4.925C67.9737 5.82433 68.6863 6.88267 69.213 8.1C69.7397 9.31733 70.002 10.6173 70 12C69.998 13.3827 69.7353 14.6827 69.212 15.9C68.6887 17.1173 67.9763 18.1757 67.075 19.075C66.1737 19.9743 65.1153 20.687 63.9 21.213C62.6847 21.739 61.3847 22.0013 60 22Z" fill="black"/>
<path d="M80 18L84 14.95L88 18L86.5 13.05L90.5 10.2H85.6L84 5L82.4 10.2H77.5L81.5 13.05L80 18ZM84 22C82.6167 22 81.3167 21.7373 80.1 21.212C78.8833 20.6867 77.825 19.9743 76.925 19.075C76.025 18.1757 75.3127 17.1173 74.788 15.9C74.2633 14.6827 74.0007 13.3827 74 12C73.9993 10.6173 74.262 9.31733 74.788 8.1C75.314 6.88267 76.0263 5.82433 76.925 4.925C77.8237 4.02567 78.882 3.31333 80.1 2.788C81.318 2.26267 82.618 2 84 2C85.382 2 86.682 2.26267 87.9 2.788C89.118 3.31333 90.1763 4.02567 91.075 4.925C91.9737 5.82433 92.6863 6.88267 93.213 8.1C93.7397 9.31733 94.002 10.6173 94 12C93.998 13.3827 93.7353 14.6827 93.212 15.9C92.6887 17.1173 91.9763 18.1757 91.075 19.075C90.1737 19.9743 89.1153 20.687 87.9 21.213C86.6847 21.739 85.3847 22.0013 84 22Z" fill="black"/>
<path d="M104 18L108 14.95L112 18L110.5 13.05L114.5 10.2H109.6L108 5L106.4 10.2H101.5L105.5 13.05L104 18ZM108 22C106.617 22 105.317 21.7373 104.1 21.212C102.883 20.6867 101.825 19.9743 100.925 19.075C100.025 18.1757 99.3127 17.1173 98.788 15.9C98.2633 14.6827 98.0007 13.3827 98 12C97.9993 10.6173 98.262 9.31733 98.788 8.1C99.314 6.88267 100.026 5.82433 100.925 4.925C101.824 4.02567 102.882 3.31333 104.1 2.788C105.318 2.26267 106.618 2 108 2C109.382 2 110.682 2.26267 111.9 2.788C113.118 3.31333 114.176 4.02567 115.075 4.925C115.974 5.82433 116.686 6.88267 117.213 8.1C117.74 9.31733 118.002 10.6173 118 12C117.998 13.3827 117.735 14.6827 117.212 15.9C116.689 17.1173 115.976 18.1757 115.075 19.075C114.174 19.9743 113.115 20.687 111.9 21.213C110.685 21.739 109.385 22.0013 108 22Z" fill="black"/>
</svg>
