<svg width="45" height="45" viewBox="0 0 45 45" fill="none" xmlns="http://www.w3.org/2000/svg">
<path d="M18.03 33.75H34.4719C34.8081 33.75 35.0844 33.6419 35.3006 33.4256C35.5169 33.2094 35.625 32.9331 35.625 32.5969V6.77813C35.625 6.44187 35.5169 6.16563 35.3006 5.94938C35.0844 5.73313 34.8081 5.625 34.4719 5.625H18.0281C17.6919 5.625 17.4156 5.73313 17.1994 5.94938C16.9831 6.16563 16.875 6.4425 16.875 6.78V32.5969C16.875 32.9331 16.9831 33.2094 17.1994 33.4256C17.4156 33.6419 17.6925 33.75 18.03 33.75ZM18.03 35.625C17.1663 35.625 16.4456 35.3356 15.8681 34.7569C15.2906 34.1781 15.0012 33.4581 15 32.5969V6.77625C15 5.91375 15.2894 5.19375 15.8681 4.61625C16.4469 4.03875 17.1675 3.75 18.03 3.75H34.4719C35.3344 3.75 36.0544 4.03938 36.6319 4.61813C37.2094 5.19688 37.4988 5.9175 37.5 6.78V32.5969C37.5 33.4594 37.2113 34.1794 36.6338 34.7569C36.0562 35.3344 35.335 35.6238 34.47 35.625H18.03ZM26.25 13.7025C26.935 13.7025 27.515 13.465 27.99 12.99C28.465 12.515 28.7025 11.935 28.7025 11.25C28.7025 10.565 28.465 9.985 27.99 9.51C27.515 9.035 26.935 8.7975 26.25 8.7975C25.565 8.7975 24.985 9.035 24.51 9.51C24.035 9.985 23.7975 10.565 23.7975 11.25C23.7975 11.935 24.035 12.515 24.51 12.99C24.985 13.465 25.565 13.7025 26.25 13.7025ZM26.25 30.1444C27.8225 30.1444 29.1531 29.6 30.2419 28.5113C31.3306 27.4225 31.875 26.0919 31.875 24.5194C31.875 22.9469 31.3306 21.6162 30.2419 20.5275C29.1531 19.4388 27.8225 18.8944 26.25 18.8944C24.6775 18.8944 23.3469 19.4388 22.2581 20.5275C21.1694 21.6162 20.625 22.9469 20.625 24.5194C20.625 26.0919 21.1694 27.4225 22.2581 28.5113C23.3469 29.6 24.6775 30.1444 26.25 30.1444ZM26.25 28.2694C25.2288 28.2694 24.3481 27.9 23.6081 27.1613C22.8694 26.4212 22.5 25.5406 22.5 24.5194C22.5 23.4981 22.8694 22.6175 23.6081 21.8775C24.3481 21.1388 25.2288 20.7694 26.25 20.7694C27.2712 20.7694 28.1519 21.1388 28.8919 21.8775C29.6306 22.6175 30 23.4981 30 24.5194C30 25.5406 29.6306 26.4212 28.8919 27.1613C28.1531 27.9013 27.2725 28.2706 26.25 28.2694ZM28.125 41.25H12.405C11.5413 41.25 10.8206 40.9613 10.2431 40.3838C9.66562 39.8063 9.37625 39.0856 9.375 38.2219V11.25H11.25V38.2219C11.25 38.5581 11.3581 38.8344 11.5744 39.0506C11.7906 39.2669 12.0675 39.375 12.405 39.375H28.125V41.25Z" fill="black"/>
<path d="M3.75 15L3.75 43.125" stroke="black"/>
</svg>
