<svg width="29" height="29" viewBox="0 0 29 29" fill="none" xmlns="http://www.w3.org/2000/svg">
<path d="M26.7253 22.4965L25.1099 8.90277C25.0706 8.57059 24.9102 8.26456 24.6594 8.04323C24.4086 7.8219 24.085 7.70081 23.7505 7.70312H19.4844V7.25C19.4844 5.92806 18.9592 4.66027 18.0245 3.72551C17.0897 2.79076 15.8219 2.26563 14.5 2.26562C13.1781 2.26563 11.9103 2.79076 10.9755 3.72551C10.0408 4.66027 9.51563 5.92806 9.51563 7.25V7.70312H5.24832C4.91383 7.70081 4.59023 7.8219 4.33943 8.04323C4.08863 8.26456 3.92824 8.57059 3.88895 8.90277L2.27356 22.4965C2.25125 22.6865 2.26929 22.879 2.32648 23.0615C2.38368 23.2441 2.47874 23.4124 2.60547 23.5557C2.73454 23.7009 2.89299 23.8169 3.07032 23.8962C3.24766 23.9755 3.43981 24.0162 3.63406 24.0156H25.3659C25.5598 24.0159 25.7515 23.9751 25.9284 23.8958C26.1054 23.8165 26.2634 23.7006 26.3923 23.5557C26.5192 23.4125 26.6145 23.2442 26.6719 23.0617C26.7293 22.8791 26.7475 22.6866 26.7253 22.4965ZM10.4219 7.25C10.4219 6.16841 10.8515 5.13113 11.6163 4.36633C12.3811 3.60153 13.4184 3.17188 14.5 3.17188C15.5816 3.17188 16.6189 3.60153 17.3837 4.36633C18.1485 5.13113 18.5781 6.16841 18.5781 7.25V7.70312H10.4219V7.25ZM25.7148 22.9542C25.6711 23.0034 25.6173 23.0427 25.5572 23.0695C25.497 23.0963 25.4318 23.1099 25.3659 23.1094H3.63406C3.56821 23.1099 3.50301 23.0963 3.44283 23.0695C3.38266 23.0427 3.3289 23.0034 3.28516 22.9542C3.24223 22.9074 3.2099 22.8519 3.19035 22.7915C3.1708 22.7311 3.1645 22.6672 3.17188 22.6041L4.78613 9.01039C4.79897 8.89946 4.85233 8.79718 4.93595 8.72317C5.01958 8.64916 5.12759 8.60863 5.23926 8.60938H9.51563V11.7812C9.51563 11.9014 9.56337 12.0167 9.64834 12.1017C9.73332 12.1866 9.84857 12.2344 9.96875 12.2344C10.0889 12.2344 10.2042 12.1866 10.2892 12.1017C10.3741 12.0167 10.4219 11.9014 10.4219 11.7812V8.60938H18.5781V11.7812C18.5781 11.9014 18.6259 12.0167 18.7108 12.1017C18.7958 12.1866 18.9111 12.2344 19.0313 12.2344C19.1514 12.2344 19.2667 12.1866 19.3517 12.1017C19.4366 12.0167 19.4844 11.9014 19.4844 11.7812V8.60938H23.7517C23.8643 8.60722 23.9737 8.64711 24.0585 8.72125C24.1434 8.79539 24.1975 8.89848 24.2105 9.01039L25.8247 22.6041C25.8326 22.667 25.8268 22.7307 25.8078 22.7911C25.7889 22.8515 25.7572 22.9071 25.7148 22.9542Z" fill="black"/>
</svg>
