<svg width="233" height="93" viewBox="0 0 233 93" fill="none" xmlns="http://www.w3.org/2000/svg">
<path d="M26 42.8417C31.045 37.3153 44.6036 26.7887 46.2327 37.8765V56L61 56" stroke="black" stroke-width="5"/>
<path d="M104.001 56H94.3037C94.2256 56 94.1865 55.9512 94.1865 55.8535L94.2158 35.2725C94.2158 35.1748 94.2646 35.126 94.3623 35.126H97.7021C97.7998 35.126 97.8486 35.1748 97.8486 35.2725L97.8193 52.3086H104.001C104.099 52.3086 104.147 52.3574 104.147 52.4551V55.8535C104.147 55.9512 104.099 56 104.001 56ZM113.133 56.293C112.078 56.293 111.102 56.0195 110.203 55.4727C109.305 54.9258 108.587 54.1934 108.05 53.2754C107.522 52.3477 107.259 51.3369 107.259 50.2432L107.317 35.2432C107.317 35.165 107.356 35.126 107.435 35.126H110.804C110.882 35.126 110.921 35.165 110.921 35.2432V50.2432C110.921 50.917 111.136 51.4932 111.565 51.9717C111.995 52.4404 112.518 52.6748 113.133 52.6748C113.777 52.6748 114.314 52.4404 114.744 51.9717C115.174 51.4932 115.389 50.917 115.389 50.2432V35.2432C115.389 35.165 115.428 35.126 115.506 35.126H118.875C118.953 35.126 118.992 35.165 118.992 35.2432L119.051 50.2432C119.051 51.3467 118.787 52.3623 118.26 53.29C117.723 54.208 117.01 54.9404 116.121 55.4873C115.232 56.0244 114.236 56.293 113.133 56.293ZM126.425 56H123.026C122.948 56 122.909 55.9512 122.909 55.8535L122.968 35.2432C122.968 35.165 123.007 35.126 123.085 35.126H126.747C126.825 35.126 126.894 35.165 126.952 35.2432L129.691 39.1982L132.416 35.2432C132.475 35.165 132.548 35.126 132.636 35.126H136.312C136.4 35.126 136.444 35.165 136.444 35.2432L136.503 55.8535C136.503 55.9512 136.464 56 136.386 56H132.987C132.909 56 132.87 55.9512 132.87 55.8535L132.841 40.5459L129.691 45.1162L126.571 40.5459L126.542 55.8535C126.542 55.9512 126.503 56 126.425 56ZM144.067 56H140.669C140.571 56 140.522 55.9512 140.522 55.8535L140.552 35.2432C140.552 35.165 140.591 35.126 140.669 35.126H144.038C144.116 35.126 144.155 35.165 144.155 35.2432L144.185 55.8535C144.185 55.9512 144.146 56 144.067 56ZM151.588 56H148.585C148.429 56 148.351 55.9316 148.351 55.7949L148.321 35.3604C148.321 35.2041 148.399 35.126 148.556 35.126H151.266L156.334 46.9473L156.188 35.3604C156.188 35.2041 156.275 35.126 156.451 35.126H159.425C159.542 35.126 159.601 35.2041 159.601 35.3604L159.63 55.8242C159.63 55.9414 159.581 56 159.483 56H156.847L151.646 44.9551L151.866 55.7656C151.866 55.9219 151.773 56 151.588 56ZM162.727 55.8535L166.447 35.2432C166.467 35.165 166.516 35.126 166.594 35.126H170.944C171.022 35.126 171.071 35.165 171.091 35.2432L174.665 55.8535C174.675 55.9512 174.636 56 174.548 56H171.223C171.125 56 171.071 55.9512 171.062 55.8535L170.739 53.6562H166.652L166.33 55.8535C166.32 55.9512 166.271 56 166.184 56H162.844C162.766 56 162.727 55.9512 162.727 55.8535ZM168.601 42.0254L167.253 50.4482H170.139L168.908 42.0254L168.732 40.9121L168.601 42.0254Z" fill="black"/>
<path d="M77 24V68" stroke="black"/>
</svg>
